<svg xmlns="http://www.w3.org/2000/svg" fill="none" viewBox="0 0 1797 1820"><path stroke="url(#pattern_svg__a)" stroke-linecap="round" stroke-linejoin="round" stroke-miterlimit="1.5" stroke-width="8" d="M672.747 1766.47c48.435-28.25 90.318-61.33 128.03-99.52 78.245-79.24 132.677-177.13 160.262-282.22"></path><path stroke="url(#pattern_svg__b)" stroke-linecap="round" stroke-linejoin="round" stroke-miterlimit="1.5" stroke-width="8" d="M1124.26 1766.47c-48.43-28.25-90.32-61.33-128.029-99.52-78.245-79.24-132.677-177.13-160.262-282.22"></path><path stroke="url(#pattern_svg__c)" stroke-linecap="round" stroke-linejoin="round" stroke-miterlimit="1.5" stroke-width="8" d="M51.238 679.981c48.16-28.032 98.508-48.804 149.797-62.653 107.059-28.909 218.219-27.655 322.146.692"></path><path stroke="url(#pattern_svg__d)" stroke-linecap="round" stroke-linejoin="round" stroke-miterlimit="1.5" stroke-width="8" d="M1745.77 679.981c-48.16-28.032-98.51-48.804-149.79-62.653-107.06-28.909-218.22-27.655-322.15.692"></path><path stroke="url(#pattern_svg__e)" stroke-linecap="round" stroke-linejoin="round" stroke-miterlimit="1.5" stroke-width="8" d="M429.629 847.448a620.7 620.7 0 0 0-150.487 62.358m244.039 291.304c-103.926 28.35-215.087 29.6-322.146.7-51.289-13.85-101.637-34.63-149.797-62.66 27.863-48.55 61.207-91.91 98.787-129.76 78.501-79.065 175.484-134.051 279.598-161.887"></path><path stroke="url(#pattern_svg__f)" stroke-linecap="round" stroke-linejoin="round" stroke-miterlimit="1.5" stroke-width="8" d="M1367.38 847.448a620.7 620.7 0 0 1 150.49 62.358m-244.04 291.304c103.93 28.35 215.09 29.6 322.15.7 51.28-13.85 101.63-34.63 149.79-62.66-27.86-48.55-61.21-91.91-98.78-129.76-78.51-79.065-175.49-134.051-279.6-161.887"></path><path stroke="url(#pattern_svg__g)" stroke-linecap="round" stroke-linejoin="round" stroke-miterlimit="1.5" stroke-width="8" d="M429.414 846.95c-104.037 27.934-200.925 82.987-279.33 162.09-37.562 37.89-70.882 81.31-98.713 129.91 48.163 27.97 98.508 48.69 149.79 62.49 107.123 28.82 218.333 27.47 322.278-1.01"></path><path stroke="url(#pattern_svg__h)" stroke-linecap="round" stroke-linejoin="round" stroke-miterlimit="1.5" stroke-width="8" d="M1367.6 846.95c104.03 27.934 200.92 82.987 279.33 162.09 37.56 37.89 70.88 81.31 98.71 129.91-48.16 27.97-98.51 48.69-149.79 62.49-107.12 28.82-218.33 27.47-322.28-1.01"></path><path stroke="url(#pattern_svg__i)" stroke-linecap="round" stroke-linejoin="round" stroke-miterlimit="1.5" stroke-width="8" d="m1038.71 990.862-278.01-.819 138.353-242.618z"></path><path stroke="url(#pattern_svg__j)" stroke-linecap="round" stroke-linejoin="round" stroke-miterlimit="1.5" stroke-width="8" d="M1338.64 1677.86c14.44-54.4 21.31-109.06 21.28-162.85-.05-111.55-29.82-219.32-83.48-313.15m62.28 475.48c-53.65-14.52-103.77-35.72-149.72-62.49-96.04-55.94-173.87-136.17-227.604-230.42m-.535-.93c27.177 47.86 60.559 92.13 99.379 131.45m117.71-442.98c38.4 38.88 71.47 82.59 98.49 129.84a633.6 633.6 0 0 1 62.28 151.57m-278.51 161.47c-38.55-39.06-71.745-82.99-98.82-130.48a633.6 633.6 0 0 1-62.025-151.42l-.087-161.64"></path><path stroke="url(#pattern_svg__k)" stroke-linecap="round" stroke-linejoin="round" stroke-miterlimit="1.5" stroke-width="8" d="M1126.71 1766.54c27.88-48.78 48.53-99.78 62.28-151.73 28.53-107.77 27.4-219.65-.39-324.31m-190.296 376.06c37.526 37.86 80.506 71.45 128.606 99.5"></path><path stroke="url(#pattern_svg__l)" stroke-linecap="round" stroke-linejoin="round" stroke-miterlimit="1.5" stroke-width="8" d="M897.549 22.496c39.245 39.638 72.135 83.281 98.67 129.63 55.591 97.104 83.291 206.09 83.091 315.034M898.164 21.532c-39.547 39.944-72.641 83.953-99.282 130.701-55.274 96.991-82.769 205.771-82.485 314.49m21.47 162.364c-14.195-53.195-21.349-107.914-21.463-162.645-.114-54.661 6.793-109.334 20.723-162.514m320.903 325.459c14.14-53.216 21.24-107.95 21.29-162.689"></path><path stroke="url(#pattern_svg__m)" stroke-linecap="round" stroke-linejoin="round" stroke-miterlimit="1.5" stroke-width="8" d="M610.481 529.239a636.3 636.3 0 0 1-21.448-162.841m82.359-314.513c48.435 28.244 91.679 62.103 129.391 100.293 78.245 79.237 132.677 177.123 160.262 282.212M672.233 52.655c-27.75 48.547-48.336 99.3-62.09 151.007-28.814 108.327-27.641 220.84.464 326.021"></path><path stroke="url(#pattern_svg__n)" stroke-linecap="round" stroke-linejoin="round" stroke-miterlimit="1.5" stroke-width="8" d="M1186.54 529.239c14.09-52.918 21.37-107.687 21.44-162.841m-82.35-314.513c-48.44 28.244-91.68 62.103-129.396 100.293-78.244 79.237-132.677 177.123-160.261 282.212M1124.78 52.655c27.75 48.547 48.34 99.3 62.09 151.007 28.82 108.327 27.65 220.84-.46 326.021"></path><path stroke="url(#pattern_svg__o)" stroke-linecap="round" stroke-linejoin="round" stroke-miterlimit="1.5" stroke-width="8" d="M459.462 140.665c54.023 14.621 104.469 36.021 150.683 63.052 95.882 56.082 173.543 136.404 227.117 230.701M460.472 141.19c-14.365 54.147-21.244 108.552-21.279 162.092-.074 112.169 29.891 220.541 83.991 314.791m313.933-183.897c-26.96-47.395-60.007-91.255-98.396-130.275m-116.8 443.919 138.537 80.786m138.555-242.857a633.9 633.9 0 0 0-61.757-151.385M621.893 747.715c-38.466-38.824-71.619-82.489-98.716-129.696a633.9 633.9 0 0 1-62.535-151.511"></path><path stroke="url(#pattern_svg__p)" stroke-linecap="round" stroke-linejoin="round" stroke-miterlimit="1.5" stroke-width="8" d="M1336.54 141.194c-54.02 14.62-103.46 35.498-149.67 62.529-95.89 56.083-173.55 136.404-227.122 230.701m376.792-293.228c14.36 54.147 21.24 108.552 21.28 162.092.07 112.169-29.89 220.542-83.99 314.792M959.893 434.182c26.96-47.395 60.007-91.255 98.397-130.275m116.8 443.919-138.54 80.786M897.998 585.755a633.8 633.8 0 0 1 61.757-151.385m215.365 313.351c38.46-38.824 71.62-82.488 98.71-129.696a633.7 633.7 0 0 0 62.54-151.511"></path><path stroke="url(#pattern_svg__q)" stroke-linecap="round" stroke-linejoin="round" stroke-miterlimit="1.5" stroke-width="8" d="M717.694 467.159c-38.251-38.787-81.491-72.552-128.661-100.225m-311.52-85.113c55.928 0 110.14 7.483 161.705 21.512 106.987 29.107 202.584 86.389 278.496 163.468M278.623 282.063c0 56.057 7.296 110.407 20.982 162.132 28.672 108.366 85.386 205.213 161.794 282.109"></path><path stroke="url(#pattern_svg__r)" stroke-linecap="round" stroke-linejoin="round" stroke-miterlimit="1.5" stroke-width="8" d="M1079.32 467.163c38.25-38.788 81.49-72.553 128.66-100.225m-128.68 99.867c75.91-77.08 171.51-134.362 278.5-163.469 51.56-14.028 104.66-21.27 160.59-21.27 0 56.058-7.3 110.407-20.98 162.133-28.67 108.366-85.39 205.212-161.8 282.108"></path><path stroke="url(#pattern_svg__s)" stroke-linecap="round" stroke-linejoin="round" stroke-miterlimit="1.5" stroke-width="8" d="M610.612 529.63c-93.121-54.55-200.173-84.82-310.992-84.883-53.09-.031-107.045 6.872-160.747 21.359 14.473 54.177 35.568 104.783 62.169 151.166 55.566 96.891 135.154 175.356 228.588 229.461M610.5 529.29c-46.892-27.512-97.322-48.864-149.992-63.299m278.465 163.395a624.8 624.8 0 0 0-128.368-99.702m-30.907 379.467c-52.661-14.132-103.117-35.171-150.076-62.364"></path><path stroke="url(#pattern_svg__t)" stroke-linecap="round" stroke-linejoin="round" stroke-miterlimit="1.5" stroke-width="8" d="M1186.4 529.63c93.12-54.55 200.18-84.82 311-84.883 53.09-.031 107.04 6.872 160.74 21.359-14.47 54.177-35.57 104.783-62.17 151.166-55.56 96.891-135.15 175.356-228.58 229.461M1186.52 529.29c46.89-27.512 97.32-48.864 149.99-63.299m-278.47 163.395a625 625 0 0 1 128.37-99.702m30.91 379.467c52.66-14.132 103.12-35.171 150.07-62.364"></path><path stroke="url(#pattern_svg__u)" stroke-linecap="round" stroke-linejoin="round" stroke-miterlimit="1.5" stroke-width="8" d="M429.623 971.682a620.7 620.7 0 0 1-150.487-62.357M51.231 679.978c27.864 48.548 61.208 91.915 98.787 129.764 78.501 79.064 175.485 134.05 279.599 161.886"></path><path stroke="url(#pattern_svg__v)" stroke-linecap="round" stroke-linejoin="round" stroke-miterlimit="1.5" stroke-width="8" d="M1367.38 971.682a620.6 620.6 0 0 0 150.49-62.357m227.91-229.347c-27.87 48.548-61.21 91.915-98.79 129.764-78.5 79.064-175.48 134.05-279.6 161.886"></path><path stroke="url(#pattern_svg__w)" stroke-linecap="round" stroke-linejoin="round" stroke-miterlimit="1.5" stroke-width="8" d="M899.465 1796.64c-39.245-39.64-72.135-83.28-98.67-129.63-55.591-97.11-83.29-206.09-83.094-315.04M898.85 1797.6c39.547-39.94 72.641-83.95 99.282-130.7 55.278-96.99 82.768-205.77 82.488-314.49m-21.47-162.36c14.19 53.19 21.35 107.91 21.46 162.64.11 54.66-6.79 109.34-20.72 162.51m-320.91-325.45c-14.138 53.21-21.234 107.95-21.287 162.69"></path><path stroke="url(#pattern_svg__x)" stroke-linecap="round" stroke-linejoin="round" stroke-miterlimit="1.5" stroke-width="8" d="M897.549 1796.64c39.245-39.64 72.135-83.28 98.67-129.63 55.591-97.11 83.291-206.09 83.091-315.04M898.164 1797.6c-39.547-39.94-72.641-83.95-99.282-130.7-55.274-96.99-82.769-205.77-82.485-314.49m21.47-162.36c-14.195 53.19-21.349 107.91-21.463 162.64-.114 54.66 6.793 109.34 20.723 162.51m320.903-325.45c14.14 53.21 21.24 107.95 21.29 162.69"></path><path stroke="url(#pattern_svg__y)" stroke-linecap="round" stroke-linejoin="round" stroke-miterlimit="1.5" stroke-width="8" d="M610.483 1289.89a636.3 636.3 0 0 0-21.448 162.84m83.2 313.74c-27.751-48.55-48.337-99.3-62.09-151.01-28.815-108.32-27.642-220.84.464-326.02"></path><path stroke="url(#pattern_svg__z)" stroke-linecap="round" stroke-linejoin="round" stroke-miterlimit="1.5" stroke-width="8" d="M1186.53 1289.89a636.3 636.3 0 0 1 21.45 162.84m-83.2 313.75c27.75-48.55 48.34-99.3 62.09-151.01 28.81-108.33 27.64-220.84-.47-326.02"></path><path stroke="url(#pattern_svg__A)" stroke-linecap="round" stroke-linejoin="round" stroke-miterlimit="1.5" stroke-width="8" d="M459.462 1678.47c54.023-14.62 104.469-36.02 150.683-63.05 95.882-56.09 173.543-136.41 227.117-230.7m-376.79 293.22c-14.365-54.14-21.244-108.55-21.279-162.09-.074-112.17 29.891-220.54 83.991-314.79m313.933 183.9c-26.96 47.39-60.007 91.25-98.396 130.27m-116.8-443.92 138.537-80.783m138.555 242.853a634 634 0 0 1-61.757 151.39m-215.363-313.35c-38.466 38.82-71.619 82.49-98.716 129.69a634 634 0 0 0-62.535 151.51"></path><path stroke="url(#pattern_svg__B)" stroke-linecap="round" stroke-linejoin="round" stroke-miterlimit="1.5" stroke-width="8" d="M1337.55 1678.47c-54.02-14.62-104.47-36.02-150.68-63.05-95.89-56.09-173.55-136.41-227.12-230.7m376.79 293.22c14.36-54.14 21.24-108.55 21.28-162.09.07-112.17-29.89-220.54-83.99-314.79m-313.936 183.9c26.961 47.39 60.006 91.25 98.396 130.27m116.8-443.92-138.54-80.783M897.999 1233.38a634 634 0 0 0 61.757 151.39m215.364-313.35c38.46 38.82 71.62 82.49 98.72 129.69a634.3 634.3 0 0 1 62.53 151.51"></path><path stroke="url(#pattern_svg__C)" stroke-linecap="round" stroke-linejoin="round" stroke-miterlimit="1.5" stroke-width="8" d="M717.694 1351.98c-38.251 38.78-81.491 72.55-128.661 100.22m-311.52 85.12c55.928 0 110.14-7.49 161.705-21.52 106.987-29.1 202.584-86.39 278.496-163.46m-439.091 184.73c0-56.05 7.296-110.4 20.982-162.13 28.672-108.36 85.386-205.21 161.794-282.11"></path><path stroke="url(#pattern_svg__D)" stroke-linecap="round" stroke-linejoin="round" stroke-miterlimit="1.5" stroke-width="8" d="M1079.32 1351.98c38.25 38.78 81.49 72.55 128.66 100.22m311.52 85.12c-55.93 0-110.14-7.49-161.71-21.52-106.98-29.1-202.58-86.39-278.49-163.46m439.09 184.73c0-56.05-7.3-110.4-20.98-162.13-28.68-108.36-85.39-205.21-161.8-282.11"></path><path stroke="url(#pattern_svg__E)" stroke-linecap="round" stroke-linejoin="round" stroke-miterlimit="1.5" stroke-width="8" d="M610.612 1289.5c-93.121 54.55-200.173 84.82-310.992 84.89-53.09.03-107.045-6.88-160.747-21.36 14.473-54.18 35.568-104.79 62.169-151.17 55.566-96.89 135.154-175.36 228.588-229.46m180.87 317.44c-46.892 27.51-97.322 48.87-149.992 63.3m278.465-163.39a625 625 0 0 1-128.368 99.7m-30.907-379.468c-52.661 14.132-103.117 35.171-150.076 62.364"></path><path stroke="url(#pattern_svg__F)" stroke-linecap="round" stroke-linejoin="round" stroke-miterlimit="1.5" stroke-width="8" d="M1186.4 1289.5c93.12 54.55 200.18 84.82 311 84.89 53.09.03 107.04-6.88 160.74-21.36-14.47-54.18-35.57-104.79-62.17-151.17-55.56-96.89-135.15-175.36-228.58-229.46m-180.87 317.44c46.89 27.51 97.32 48.87 149.99 63.3m-278.47-163.39a625.3 625.3 0 0 0 128.37 99.7m30.91-379.468c52.66 14.132 103.12 35.171 150.07 62.364"></path><path stroke="url(#pattern_svg__G)" stroke-linecap="round" stroke-linejoin="round" stroke-miterlimit="1.5" stroke-width="8" d="M461.378 726.249c-107.65-.214-215.344 27.634-311.347 83.545-45.993 26.785-89.302 60.011-128.638 99.677 39.354 39.61 82.675 72.782 128.672 99.519 96.087 55.85 203.855 83.61 311.555 83.28m-161.346-20.95a618.3 618.3 0 0 0 161.339 20.89 617.8 617.8 0 0 0 160.954-21.81l141.036-81.735M300.242 747.211a618.2 618.2 0 0 1 161.129-21.016 618.2 618.2 0 0 1 160.526 21.516l141.706 83.243"></path><path stroke="url(#pattern_svg__H)" stroke-linecap="round" stroke-linejoin="round" stroke-miterlimit="1.5" stroke-width="8" d="M1335.63 726.249c107.65-.214 215.34 27.634 311.35 83.545 45.99 26.785 89.3 60.011 128.63 99.677-39.35 39.61-82.67 72.782-128.67 99.519-96.09 55.85-203.85 83.61-311.55 83.28m161.34-20.95a618.3 618.3 0 0 1-161.34 20.89 617.8 617.8 0 0 1-160.95-21.81l-141.04-81.735m463.36-241.454a618.2 618.2 0 0 0-161.13-21.016 618.2 618.2 0 0 0-160.52 21.516l-141.71 83.243"></path><defs><linearGradient id="pattern_svg__a" x1="672.747" x2="1036.69" y1="1766.47" y2="1669.92" gradientUnits="userSpaceOnUse"><stop stop-color="#EDE8FC"></stop><stop offset="1" stop-color="#B7AAED"></stop></linearGradient><linearGradient id="pattern_svg__b" x1="1124.26" x2="760.314" y1="1766.47" y2="1669.92" gradientUnits="userSpaceOnUse"><stop stop-color="#EDE8FC"></stop><stop offset="1" stop-color="#B7AAED"></stop></linearGradient><linearGradient id="pattern_svg__c" x1="98.189" x2="523.745" y1="503" y2="615.896" gradientUnits="userSpaceOnUse"><stop stop-color="#EDE8FC"></stop><stop offset="1" stop-color="#B7AAED"></stop></linearGradient><linearGradient id="pattern_svg__d" x1="1698.82" x2="1273.27" y1="503" y2="615.896" gradientUnits="userSpaceOnUse"><stop stop-color="#EDE8FC"></stop><stop offset="1" stop-color="#B7AAED"></stop></linearGradient><linearGradient id="pattern_svg__e" x1="98.189" x2="523.998" y1="1316.13" y2="1203.17" gradientUnits="userSpaceOnUse"><stop stop-color="#EDE8FC"></stop><stop offset="1" stop-color="#B7AAED"></stop></linearGradient><linearGradient id="pattern_svg__f" x1="1698.82" x2="1273.01" y1="1316.13" y2="1203.17" gradientUnits="userSpaceOnUse"><stop stop-color="#EDE8FC"></stop><stop offset="1" stop-color="#B7AAED"></stop></linearGradient><linearGradient id="pattern_svg__g" x1="148.97" x2="605.238" y1="771.051" y2="892.094" gradientUnits="userSpaceOnUse"><stop stop-color="#EDE8FC"></stop><stop offset="1" stop-color="#B7AAED"></stop></linearGradient><linearGradient id="pattern_svg__h" x1="1648.04" x2="1191.77" y1="771.051" y2="892.094" gradientUnits="userSpaceOnUse"><stop stop-color="#EDE8FC"></stop><stop offset="1" stop-color="#B7AAED"></stop></linearGradient><linearGradient id="pattern_svg__i" x1="830.021" x2="1089.95" y1="728.742" y2="797.699" gradientUnits="userSpaceOnUse"><stop stop-color="#EDE8FC"></stop><stop offset="1" stop-color="#B7AAED"></stop></linearGradient><linearGradient id="pattern_svg__j" x1="917.782" x2="1478.59" y1="1001.56" y2="1150.33" gradientUnits="userSpaceOnUse"><stop stop-color="#EDE8FC"></stop><stop offset="1" stop-color="#B7AAED"></stop></linearGradient><linearGradient id="pattern_svg__k" x1="1104.13" x2="1269.45" y1="1267.64" y2="1311.5" gradientUnits="userSpaceOnUse"><stop stop-color="#EDE8FC"></stop><stop offset="1" stop-color="#B7AAED"></stop></linearGradient><linearGradient id="pattern_svg__l" x1="977.724" x2="597.72" y1="0" y2="100.811" gradientUnits="userSpaceOnUse"><stop stop-color="#EDE8FC"></stop><stop offset="1" stop-color="#B7AAED"></stop></linearGradient><linearGradient id="pattern_svg__m" x1="651.813" x2="1036.83" y1="46.586" y2="148.726" gradientUnits="userSpaceOnUse"><stop stop-color="#EDE8FC"></stop><stop offset="1" stop-color="#B7AAED"></stop></linearGradient><linearGradient id="pattern_svg__n" x1="1145.2" x2="760.189" y1="46.586" y2="148.726" gradientUnits="userSpaceOnUse"><stop stop-color="#EDE8FC"></stop><stop offset="1" stop-color="#B7AAED"></stop></linearGradient><linearGradient id="pattern_svg__o" x1="459.462" x2="980.424" y1="140.665" y2="278.871" gradientUnits="userSpaceOnUse"><stop stop-color="#EDE8FC"></stop><stop offset="1" stop-color="#B7AAED"></stop></linearGradient><linearGradient id="pattern_svg__p" x1="1336.54" x2="816.649" y1="141.194" y2="279.115" gradientUnits="userSpaceOnUse"><stop stop-color="#EDE8FC"></stop><stop offset="1" stop-color="#B7AAED"></stop></linearGradient><linearGradient id="pattern_svg__q" x1="283.021" x2="740.195" y1="261.06" y2="382.343" gradientUnits="userSpaceOnUse"><stop stop-color="#EDE8FC"></stop><stop offset="1" stop-color="#B7AAED"></stop></linearGradient><linearGradient id="pattern_svg__r" x1="1512.9" x2="1056.82" y1="261.36" y2="382.352" gradientUnits="userSpaceOnUse"><stop stop-color="#EDE8FC"></stop><stop offset="1" stop-color="#B7AAED"></stop></linearGradient><linearGradient id="pattern_svg__s" x1="160.446" x2="761.558" y1="384.784" y2="544.252" gradientUnits="userSpaceOnUse"><stop stop-color="#EDE8FC"></stop><stop offset="1" stop-color="#B7AAED"></stop></linearGradient><linearGradient id="pattern_svg__t" x1="1636.57" x2="1035.46" y1="384.784" y2="544.252" gradientUnits="userSpaceOnUse"><stop stop-color="#EDE8FC"></stop><stop offset="1" stop-color="#B7AAED"></stop></linearGradient><linearGradient id="pattern_svg__u" x1="51.231" x2="477.041" y1="679.978" y2="792.941" gradientUnits="userSpaceOnUse"><stop stop-color="#EDE8FC"></stop><stop offset="1" stop-color="#B7AAED"></stop></linearGradient><linearGradient id="pattern_svg__v" x1="1745.78" x2="1319.97" y1="679.978" y2="792.941" gradientUnits="userSpaceOnUse"><stop stop-color="#EDE8FC"></stop><stop offset="1" stop-color="#B7AAED"></stop></linearGradient><linearGradient id="pattern_svg__w" x1="819.29" x2="1199.29" y1="1819.13" y2="1718.32" gradientUnits="userSpaceOnUse"><stop stop-color="#EDE8FC"></stop><stop offset="1" stop-color="#B7AAED"></stop></linearGradient><linearGradient id="pattern_svg__x" x1="977.724" x2="597.72" y1="1819.13" y2="1718.32" gradientUnits="userSpaceOnUse"><stop stop-color="#EDE8FC"></stop><stop offset="1" stop-color="#B7AAED"></stop></linearGradient><linearGradient id="pattern_svg__y" x1="651.681" x2="732.917" y1="1772.03" y2="1750.48" gradientUnits="userSpaceOnUse"><stop stop-color="#EDE8FC"></stop><stop offset="1" stop-color="#B7AAED"></stop></linearGradient><linearGradient id="pattern_svg__z" x1="1145.33" x2="1064.1" y1="1772.04" y2="1750.49" gradientUnits="userSpaceOnUse"><stop stop-color="#EDE8FC"></stop><stop offset="1" stop-color="#B7AAED"></stop></linearGradient><linearGradient id="pattern_svg__A" x1="459.462" x2="980.424" y1="1678.47" y2="1540.26" gradientUnits="userSpaceOnUse"><stop stop-color="#EDE8FC"></stop><stop offset="1" stop-color="#B7AAED"></stop></linearGradient><linearGradient id="pattern_svg__B" x1="1337.55" x2="816.587" y1="1678.47" y2="1540.26" gradientUnits="userSpaceOnUse"><stop stop-color="#EDE8FC"></stop><stop offset="1" stop-color="#B7AAED"></stop></linearGradient><linearGradient id="pattern_svg__C" x1="283.021" x2="740.195" y1="1558.08" y2="1436.79" gradientUnits="userSpaceOnUse"><stop stop-color="#EDE8FC"></stop><stop offset="1" stop-color="#B7AAED"></stop></linearGradient><linearGradient id="pattern_svg__D" x1="1513.99" x2="1056.82" y1="1558.08" y2="1436.79" gradientUnits="userSpaceOnUse"><stop stop-color="#EDE8FC"></stop><stop offset="1" stop-color="#B7AAED"></stop></linearGradient><linearGradient id="pattern_svg__E" x1="160.446" x2="761.558" y1="1434.35" y2="1274.88" gradientUnits="userSpaceOnUse"><stop stop-color="#EDE8FC"></stop><stop offset="1" stop-color="#B7AAED"></stop></linearGradient><linearGradient id="pattern_svg__F" x1="1636.57" x2="1035.46" y1="1434.35" y2="1274.88" gradientUnits="userSpaceOnUse"><stop stop-color="#EDE8FC"></stop><stop offset="1" stop-color="#B7AAED"></stop></linearGradient><linearGradient id="pattern_svg__G" x1="101.657" x2="814.694" y1="606.916" y2="796.076" gradientUnits="userSpaceOnUse"><stop stop-color="#EDE8FC"></stop><stop offset="1" stop-color="#B7AAED"></stop></linearGradient><linearGradient id="pattern_svg__H" x1="1695.35" x2="982.311" y1="606.916" y2="796.076" gradientUnits="userSpaceOnUse"><stop stop-color="#EDE8FC"></stop><stop offset="1" stop-color="#B7AAED"></stop></linearGradient></defs></svg>